<?xml version="1.0" encoding="utf-8"?>
<!-- Generator: Adobe Illustrator 22.1.0, SVG Export Plug-In . SVG Version: 6.00 Build 0)  -->
<svg version="1.1" id="Layer_1" xmlns="http://www.w3.org/2000/svg" xmlns:xlink="http://www.w3.org/1999/xlink" x="0px" y="0px"
	 viewBox="0 0 16 16" style="enable-background:new 0 0 16 16;" xml:space="preserve">
<style type="text/css">
	.st0{fill:url(#SVGID_1_);}
	.st1{fill:#FFFFFF;}
</style>
<linearGradient id="SVGID_1_" gradientUnits="userSpaceOnUse" x1="0" y1="8" x2="16" y2="8">
	<stop  offset="0" style="stop-color:#6FBB7E"/>
	<stop  offset="0.2725" style="stop-color:#6FBB7E"/>
	<stop  offset="1" style="stop-color:#34A094"/>
</linearGradient>
<circle class="st0" cx="8" cy="8" r="8"/>
<g>
	<path class="st1" d="M8,8.6c-0.9,0-1.7,0-2.6,0c-0.8,0-0.9,0.1-0.9,0.9c0,0.8,0,1.6,0,2.4c0,0.5-0.2,0.6-0.6,0.6
		c-0.4,0-0.7-0.1-0.7-0.6c0-1.1-0.1-2.2,0-3.3c0.1-0.6,0.5-1.2,0.6-1.8C4.2,5,5.3,4,7,3.5c0.8-0.2,1.4-0.4,2.1,0
		c0.6,0.3,1.3,0.5,1.9,0.8c0.2,0.1,0.5,0.3,0.6,0.6c0.4,0.9,0.8,1.9,1.2,2.9c0.1,0.3,0.2,0.7,0.2,1c0,1,0,2,0,3
		c0,0.6-0.2,0.7-0.8,0.7c-0.5,0-0.6-0.2-0.6-0.7c0-0.8,0-1.7,0-2.5c0-0.5-0.2-0.7-0.7-0.7C9.9,8.6,9,8.6,8,8.6z M9.9,4.9
		c-1.3,0-2.5,0-3.8,0c0,0.8,0,1.5,0,2.3c0,0.2,0.3,0.4,0.5,0.4c0.9,0,1.8,0,2.8,0c0.2,0,0.5-0.2,0.5-0.4C10,6.5,9.9,5.7,9.9,4.9z"/>
	<path class="st1" d="M8,2.1c0.1,0,0.3,0.1,0.4,0.1c1.1,0.4,2.2,0.9,3.2,1.3c0.3,0.1,0.5,0.4,0.6,0.6c0.5,1.1,1,2.3,1.4,3.4
		c0.1,0.2,0,0.5,0.1,0.8c-0.2-0.2-0.4-0.3-0.5-0.5c-0.5-1-0.9-2.1-1.3-3.1c-0.2-0.3-0.5-0.6-0.8-0.8c-0.9-0.4-1.8-0.8-2.7-1.1
		c-0.3-0.1-0.6-0.1-0.9,0C6.7,3.2,5.7,3.6,4.8,4C4.6,4.1,4.3,4.5,4.1,4.8C3.6,5.8,3.2,6.9,2.7,8C2.6,8.2,2.4,8.3,2.3,8.4
		c0-0.2-0.1-0.4-0.1-0.5c0.5-1.3,1-2.5,1.6-3.8C3.9,3.9,4,3.8,4.1,3.7c1.2-0.5,2.4-1,3.6-1.5C7.8,2.2,7.9,2.2,8,2.1z"/>
	<path class="st1" d="M5.2,12.2c0-1,0-1.8,0-2.8c0.8,0.5,1.5,0.9,2.3,1.4C6.7,11.3,6,11.7,5.2,12.2z"/>
	<path class="st1" d="M10.9,12.2c-0.8-0.5-1.5-0.9-2.3-1.4c0.8-0.5,1.5-0.9,2.3-1.4C10.9,10.4,10.9,11.2,10.9,12.2z"/>
	<path class="st1" d="M5.9,9.2c1.4,0,2.7,0,4.2,0C9.4,9.6,8.8,10,8.2,10.4c-0.1,0.1-0.3,0-0.4,0C7.2,10,6.6,9.6,5.9,9.2z"/>
	<path class="st1" d="M6,12.4c0.3-0.2,0.4-0.3,0.6-0.4c1.7-1.1,1.8-1,3.5,0.4C8.7,12.4,7.4,12.4,6,12.4z"/>
	<path class="st1" d="M8,7c0.3,0,0.5,0,0.8,0C9.3,7,9.5,6.8,9.4,6.3c0-0.2,0-0.3,0-0.5c0-0.4-0.1-0.6-0.5-0.5c-0.5,0-1,0-1.5,0
		C6.8,5.3,6.6,5.5,6.6,6.1C6.7,7,6.6,7,7.5,7C7.7,7,7.8,7,8,7z"/>
	<path class="st1" d="M8,7C7.8,7,7.7,7,7.5,7C6.6,7,6.7,7,6.6,6.1c0-0.6,0.1-0.8,0.8-0.8c0.5,0.1,1,0,1.5,0c0.4,0,0.6,0.1,0.5,0.5
		c0,0.2,0,0.3,0,0.5C9.5,6.8,9.3,7,8.8,7C8.6,7,8.3,7,8,7z"/>
</g>
</svg>
